<svg width="1200" height="675" viewBox="0 0 1200 675" fill="none" xmlns="http://www.w3.org/2000/svg">
  <!-- Background -->
  <rect width="1200" height="675" fill="#f8fafc"/>

  <!-- Sidebar -->
  <rect width="240" height="675" fill="#1e293b"/>
  <rect x="20" y="20" width="200" height="40" rx="6" fill="#3b82f6"/>
  <text x="60" y="47" fill="white" font-family="system-ui" font-size="16" font-weight="600">Team Manager</text>

  <!-- Sidebar menu items -->
  <rect x="20" y="80" width="200" height="36" rx="6" fill="#334155"/>
  <text x="40" y="104" fill="#94a3b8" font-family="system-ui" font-size="14">Dashboard</text>
  <rect x="20" y="124" width="200" height="36" rx="6" fill="transparent"/>
  <text x="40" y="148" fill="#64748b" font-family="system-ui" font-size="14">Payments</text>
  <rect x="20" y="168" width="200" height="36" rx="6" fill="transparent"/>
  <text x="40" y="192" fill="#64748b" font-family="system-ui" font-size="14">Expenses</text>
  <rect x="20" y="212" width="200" height="36" rx="6" fill="transparent"/>
  <text x="40" y="236" fill="#64748b" font-family="system-ui" font-size="14">Reports</text>

  <!-- Main content area -->
  <rect x="260" y="20" width="920" height="60" rx="8" fill="white" stroke="#e2e8f0"/>
  <text x="280" y="58" fill="#1e293b" font-family="system-ui" font-size="20" font-weight="600">Dashboard Overview</text>

  <!-- Stats cards -->
  <rect x="260" y="100" width="220" height="100" rx="8" fill="white" stroke="#e2e8f0"/>
  <text x="280" y="130" fill="#64748b" font-family="system-ui" font-size="12">Total Collected</text>
  <text x="280" y="165" fill="#1e293b" font-family="system-ui" font-size="28" font-weight="700">$8,450</text>
  <text x="280" y="185" fill="#22c55e" font-family="system-ui" font-size="12">↑ 12% from last month</text>

  <rect x="495" y="100" width="220" height="100" rx="8" fill="white" stroke="#e2e8f0"/>
  <text x="515" y="130" fill="#64748b" font-family="system-ui" font-size="12">Outstanding</text>
  <text x="515" y="165" fill="#1e293b" font-family="system-ui" font-size="28" font-weight="700">$1,250</text>
  <text x="515" y="185" fill="#f59e0b" font-family="system-ui" font-size="12">5 families pending</text>

  <rect x="730" y="100" width="220" height="100" rx="8" fill="white" stroke="#e2e8f0"/>
  <text x="750" y="130" fill="#64748b" font-family="system-ui" font-size="12">Collection Rate</text>
  <text x="750" y="165" fill="#1e293b" font-family="system-ui" font-size="28" font-weight="700">87%</text>
  <text x="750" y="185" fill="#22c55e" font-family="system-ui" font-size="12">Above average</text>

  <rect x="965" y="100" width="215" height="100" rx="8" fill="white" stroke="#e2e8f0"/>
  <text x="985" y="130" fill="#64748b" font-family="system-ui" font-size="12">Team Members</text>
  <text x="985" y="165" fill="#1e293b" font-family="system-ui" font-size="28" font-weight="700">24</text>
  <text x="985" y="185" fill="#64748b" font-family="system-ui" font-size="12">Active this season</text>

  <!-- Chart area -->
  <rect x="260" y="220" width="460" height="280" rx="8" fill="white" stroke="#e2e8f0"/>
  <text x="280" y="255" fill="#1e293b" font-family="system-ui" font-size="16" font-weight="600">Payment Activity</text>
  <!-- Chart bars -->
  <rect x="300" y="300" width="40" height="80" rx="4" fill="#3b82f6"/>
  <rect x="360" y="320" width="40" height="60" rx="4" fill="#3b82f6"/>
  <rect x="420" y="280" width="40" height="100" rx="4" fill="#3b82f6"/>
  <rect x="480" y="310" width="40" height="70" rx="4" fill="#3b82f6"/>
  <rect x="540" y="260" width="40" height="120" rx="4" fill="#3b82f6"/>
  <rect x="600" y="290" width="40" height="90" rx="4" fill="#3b82f6"/>
  <text x="310" y="410" fill="#64748b" font-family="system-ui" font-size="10">Jan</text>
  <text x="370" y="410" fill="#64748b" font-family="system-ui" font-size="10">Feb</text>
  <text x="430" y="410" fill="#64748b" font-family="system-ui" font-size="10">Mar</text>
  <text x="490" y="410" fill="#64748b" font-family="system-ui" font-size="10">Apr</text>
  <text x="550" y="410" fill="#64748b" font-family="system-ui" font-size="10">May</text>
  <text x="610" y="410" fill="#64748b" font-family="system-ui" font-size="10">Jun</text>

  <!-- Recent activity -->
  <rect x="740" y="220" width="440" height="280" rx="8" fill="white" stroke="#e2e8f0"/>
  <text x="760" y="255" fill="#1e293b" font-family="system-ui" font-size="16" font-weight="600">Recent Activity</text>

  <rect x="760" y="280" width="400" height="50" rx="6" fill="#f1f5f9"/>
  <text x="780" y="305" fill="#1e293b" font-family="system-ui" font-size="14">Smith Family paid $150</text>
  <text x="780" y="320" fill="#64748b" font-family="system-ui" font-size="12">Registration dues • 2 hours ago</text>

  <rect x="760" y="340" width="400" height="50" rx="6" fill="#f1f5f9"/>
  <text x="780" y="365" fill="#1e293b" font-family="system-ui" font-size="14">Johnson Family paid $75</text>
  <text x="780" y="380" fill="#64748b" font-family="system-ui" font-size="12">Tournament fee • 5 hours ago</text>

  <rect x="760" y="400" width="400" height="50" rx="6" fill="#f1f5f9"/>
  <text x="780" y="425" fill="#1e293b" font-family="system-ui" font-size="14">Equipment expense recorded</text>
  <text x="780" y="440" fill="#64748b" font-family="system-ui" font-size="12">$245 - Soccer balls • Yesterday</text>

  <!-- Quick actions -->
  <rect x="260" y="520" width="920" height="135" rx="8" fill="white" stroke="#e2e8f0"/>
  <text x="280" y="555" fill="#1e293b" font-family="system-ui" font-size="16" font-weight="600">Quick Actions</text>
  <rect x="280" y="575" width="140" height="60" rx="6" fill="#3b82f6"/>
  <text x="310" y="612" fill="white" font-family="system-ui" font-size="14" font-weight="500">Record Payment</text>
  <rect x="440" y="575" width="140" height="60" rx="6" fill="#10b981"/>
  <text x="475" y="612" fill="white" font-family="system-ui" font-size="14" font-weight="500">Add Expense</text>
  <rect x="600" y="575" width="140" height="60" rx="6" fill="#8b5cf6"/>
  <text x="620" y="612" fill="white" font-family="system-ui" font-size="14" font-weight="500">Send Reminder</text>
  <rect x="760" y="575" width="140" height="60" rx="6" fill="#f59e0b"/>
  <text x="782" y="612" fill="white" font-family="system-ui" font-size="14" font-weight="500">View Reports</text>
</svg>
