<svg width="1200" height="675" viewBox="0 0 1200 675" fill="none" xmlns="http://www.w3.org/2000/svg">
  <!-- Background -->
  <rect width="1200" height="675" fill="#f8fafc"/>

  <!-- Sidebar -->
  <rect width="240" height="675" fill="#1e293b"/>
  <rect x="20" y="20" width="200" height="40" rx="6" fill="#3b82f6"/>
  <text x="60" y="47" fill="white" font-family="system-ui" font-size="16" font-weight="600">Team Manager</text>

  <!-- Sidebar menu items -->
  <rect x="20" y="80" width="200" height="36" rx="6" fill="transparent"/>
  <text x="40" y="104" fill="#64748b" font-family="system-ui" font-size="14">Dashboard</text>
  <rect x="20" y="124" width="200" height="36" rx="6" fill="#334155"/>
  <text x="40" y="148" fill="#94a3b8" font-family="system-ui" font-size="14">Payments</text>
  <rect x="20" y="168" width="200" height="36" rx="6" fill="transparent"/>
  <text x="40" y="192" fill="#64748b" font-family="system-ui" font-size="14">Expenses</text>
  <rect x="20" y="212" width="200" height="36" rx="6" fill="transparent"/>
  <text x="40" y="236" fill="#64748b" font-family="system-ui" font-size="14">Reports</text>

  <!-- Header -->
  <rect x="260" y="20" width="920" height="60" rx="8" fill="white" stroke="#e2e8f0"/>
  <text x="280" y="58" fill="#1e293b" font-family="system-ui" font-size="20" font-weight="600">Payment Tracking</text>
  <rect x="1000" y="35" width="160" height="32" rx="6" fill="#3b82f6"/>
  <text x="1030" y="57" fill="white" font-family="system-ui" font-size="14" font-weight="500">+ New Payment</text>

  <!-- Filter bar -->
  <rect x="260" y="100" width="920" height="50" rx="8" fill="white" stroke="#e2e8f0"/>
  <text x="280" y="132" fill="#64748b" font-family="system-ui" font-size="14">Filter:</text>
  <rect x="330" y="112" width="100" height="28" rx="4" fill="#f1f5f9" stroke="#e2e8f0"/>
  <text x="355" y="132" fill="#1e293b" font-family="system-ui" font-size="13">All Status</text>
  <rect x="445" y="112" width="100" height="28" rx="4" fill="#f1f5f9" stroke="#e2e8f0"/>
  <text x="472" y="132" fill="#1e293b" font-family="system-ui" font-size="13">All Types</text>
  <rect x="960" y="112" width="200" height="28" rx="4" fill="#f1f5f9" stroke="#e2e8f0"/>
  <text x="980" y="132" fill="#94a3b8" font-family="system-ui" font-size="13">Search members...</text>

  <!-- Table header -->
  <rect x="260" y="170" width="920" height="40" rx="0" fill="#f8fafc"/>
  <text x="280" y="196" fill="#64748b" font-family="system-ui" font-size="12" font-weight="600">MEMBER</text>
  <text x="500" y="196" fill="#64748b" font-family="system-ui" font-size="12" font-weight="600">TYPE</text>
  <text x="680" y="196" fill="#64748b" font-family="system-ui" font-size="12" font-weight="600">AMOUNT</text>
  <text x="820" y="196" fill="#64748b" font-family="system-ui" font-size="12" font-weight="600">STATUS</text>
  <text x="980" y="196" fill="#64748b" font-family="system-ui" font-size="12" font-weight="600">DATE</text>

  <!-- Table rows -->
  <rect x="260" y="210" width="920" height="60" fill="white" stroke="#e2e8f0"/>
  <circle cx="300" cy="240" r="16" fill="#3b82f6"/>
  <text x="293" y="246" fill="white" font-family="system-ui" font-size="12" font-weight="600">SM</text>
  <text x="330" y="235" fill="#1e293b" font-family="system-ui" font-size="14" font-weight="500">Smith, Michael</text>
  <text x="330" y="252" fill="#64748b" font-family="system-ui" font-size="12">michael.smith@email.com</text>
  <text x="500" y="245" fill="#1e293b" font-family="system-ui" font-size="14">Registration</text>
  <text x="680" y="245" fill="#1e293b" font-family="system-ui" font-size="14" font-weight="600">$150.00</text>
  <rect x="820" y="228" width="60" height="24" rx="12" fill="#dcfce7"/>
  <text x="834" y="245" fill="#16a34a" font-family="system-ui" font-size="12" font-weight="500">Paid</text>
  <text x="980" y="245" fill="#64748b" font-family="system-ui" font-size="14">Jan 15, 2025</text>

  <rect x="260" y="270" width="920" height="60" fill="white" stroke="#e2e8f0"/>
  <circle cx="300" cy="300" r="16" fill="#10b981"/>
  <text x="293" y="306" fill="white" font-family="system-ui" font-size="12" font-weight="600">JL</text>
  <text x="330" y="295" fill="#1e293b" font-family="system-ui" font-size="14" font-weight="500">Johnson, Lisa</text>
  <text x="330" y="312" fill="#64748b" font-family="system-ui" font-size="12">lisa.johnson@email.com</text>
  <text x="500" y="305" fill="#1e293b" font-family="system-ui" font-size="14">Tournament Fee</text>
  <text x="680" y="305" fill="#1e293b" font-family="system-ui" font-size="14" font-weight="600">$75.00</text>
  <rect x="820" y="288" width="60" height="24" rx="12" fill="#dcfce7"/>
  <text x="834" y="305" fill="#16a34a" font-family="system-ui" font-size="12" font-weight="500">Paid</text>
  <text x="980" y="305" fill="#64748b" font-family="system-ui" font-size="14">Jan 14, 2025</text>

  <rect x="260" y="330" width="920" height="60" fill="white" stroke="#e2e8f0"/>
  <circle cx="300" cy="360" r="16" fill="#f59e0b"/>
  <text x="293" y="366" fill="white" font-family="system-ui" font-size="12" font-weight="600">BR</text>
  <text x="330" y="355" fill="#1e293b" font-family="system-ui" font-size="14" font-weight="500">Brown, Robert</text>
  <text x="330" y="372" fill="#64748b" font-family="system-ui" font-size="12">robert.brown@email.com</text>
  <text x="500" y="365" fill="#1e293b" font-family="system-ui" font-size="14">Registration</text>
  <text x="680" y="365" fill="#1e293b" font-family="system-ui" font-size="14" font-weight="600">$150.00</text>
  <rect x="820" y="348" width="70" height="24" rx="12" fill="#fef3c7"/>
  <text x="828" y="365" fill="#d97706" font-family="system-ui" font-size="12" font-weight="500">Pending</text>
  <text x="980" y="365" fill="#64748b" font-family="system-ui" font-size="14">Due Jan 20</text>

  <rect x="260" y="390" width="920" height="60" fill="white" stroke="#e2e8f0"/>
  <circle cx="300" cy="420" r="16" fill="#8b5cf6"/>
  <text x="293" y="426" fill="white" font-family="system-ui" font-size="12" font-weight="600">DW</text>
  <text x="330" y="415" fill="#1e293b" font-family="system-ui" font-size="14" font-weight="500">Davis, William</text>
  <text x="330" y="432" fill="#64748b" font-family="system-ui" font-size="12">william.davis@email.com</text>
  <text x="500" y="425" fill="#1e293b" font-family="system-ui" font-size="14">Uniform</text>
  <text x="680" y="425" fill="#1e293b" font-family="system-ui" font-size="14" font-weight="600">$45.00</text>
  <rect x="820" y="408" width="60" height="24" rx="12" fill="#dcfce7"/>
  <text x="834" y="425" fill="#16a34a" font-family="system-ui" font-size="12" font-weight="500">Paid</text>
  <text x="980" y="425" fill="#64748b" font-family="system-ui" font-size="14">Jan 12, 2025</text>

  <rect x="260" y="450" width="920" height="60" fill="white" stroke="#e2e8f0"/>
  <circle cx="300" cy="480" r="16" fill="#ec4899"/>
  <text x="293" y="486" fill="white" font-family="system-ui" font-size="12" font-weight="600">TM</text>
  <text x="330" y="475" fill="#1e293b" font-family="system-ui" font-size="14" font-weight="500">Taylor, Maria</text>
  <text x="330" y="492" fill="#64748b" font-family="system-ui" font-size="12">maria.taylor@email.com</text>
  <text x="500" y="485" fill="#1e293b" font-family="system-ui" font-size="14">Registration</text>
  <text x="680" y="485" fill="#1e293b" font-family="system-ui" font-size="14" font-weight="600">$150.00</text>
  <rect x="820" y="468" width="70" height="24" rx="12" fill="#fee2e2"/>
  <text x="828" y="485" fill="#dc2626" font-family="system-ui" font-size="12" font-weight="500">Overdue</text>
  <text x="980" y="485" fill="#dc2626" font-family="system-ui" font-size="14">5 days late</text>

  <!-- Summary footer -->
  <rect x="260" y="530" width="920" height="80" rx="8" fill="white" stroke="#e2e8f0"/>
  <text x="280" y="565" fill="#64748b" font-family="system-ui" font-size="12">SUMMARY</text>
  <text x="280" y="590" fill="#1e293b" font-family="system-ui" font-size="14">Showing 5 of 24 members</text>
  <text x="700" y="565" fill="#64748b" font-family="system-ui" font-size="12">Total Collected: <tspan fill="#16a34a" font-weight="600">$8,450</tspan></text>
  <text x="700" y="590" fill="#64748b" font-family="system-ui" font-size="12">Outstanding: <tspan fill="#f59e0b" font-weight="600">$1,250</tspan></text>
  <text x="920" y="575" fill="#64748b" font-family="system-ui" font-size="12">Collection Rate: <tspan fill="#1e293b" font-weight="600">87%</tspan></text>
</svg>
